<svg width="257" height="194" xmlns="http://www.w3.org/2000/svg">

 <metadata id="imagebot_48">image/svg+xml</metadata>
 <g id="imagebot_2">
  <g transform="matrix(1 0 0 1 -371.885 -497.562)" fill="#ffff00" fill-rule="nonzero" stroke="#000000" stroke-width="2" stroke-linecap="round" stroke-linejoin="round" stroke-miterlimit="4" stroke-dashoffset="1.5" display="inline" id="imagebot_44">
   <path fill="#ffff00" fill-rule="nonzero" stroke="#000000" stroke-width="2" stroke-linecap="round" stroke-linejoin="round" stroke-miterlimit="4" stroke-dashoffset="1.5" id="imagebot_47" d="M 492.9121790136719 619.5399165722656 C 491.3969490136719 598.8317865722656 495.9426290136719 569.1338165722657 495.9426290136719 569.1338165722657 L 512.6101490136718 565.0932065722657 L 540.894419013672 563.0729065722657 C 563.6228590136718 564.0830565722656 570.1888490136719 562.5678265722656 571.7040790136718 567.6185865722656 C 573.2192990136718 572.6693465722656 585.8462090136718 611.0551465722656 585.8462090136718 616.1059065722657 C 585.8462090136718 621.1566765722656 582.3106790136719 633.2785065722657 582.3106790136719 633.2785065722657"/>
   <path fill="#ffff00" fill-rule="nonzero" stroke="#000000" stroke-width="2" stroke-linecap="round" stroke-linejoin="round" stroke-miterlimit="4" stroke-dashoffset="1.5" id="imagebot_46" d="M 557.5619390136719 589.3368665722656 L 562.1076290136718 614.0856065722656"/>
   <path fill="#ffff00" fill-rule="nonzero" stroke="#000000" stroke-width="2" stroke-linecap="round" stroke-linejoin="round" stroke-miterlimit="4" stroke-dashoffset="1.5" id="imagebot_45" d="M 505.5390790136719 593.3774765722657 L 507.05430901367185 612.5703765722657"/>
  </g>
  <path transform="matrix(1 0 0 1 -371.885 -497.562)" fill="#c89664" fill-rule="nonzero" stroke="#000000" stroke-width="2" stroke-linecap="round" stroke-linejoin="round" stroke-miterlimit="4" stroke-dashoffset="1.5" id="imagebot_43" d="M540.6419,548.17317L539.3792,567.61861C539.3792,567.61861 529.27768,574.1846 524.73199,574.1846C520.18631,574.1846 515.64062,565.5983 515.64062,565.5983"/>
  <path fill="#c89664" fill-rule="nonzero" stroke="#000000" stroke-width="2" stroke-linecap="round" stroke-linejoin="round" stroke-miterlimit="4" stroke-dashoffset="1.5" id="imagebot_42" d="M 144.3138444238282 11.505587875976573 C 135.79318442382817 15.668747875976578 129.65904442382816 26.725227875976543 130.13679442382812 41.14514787597659 C 130.80769442382814 61.3949178759766 139.71529442382814 68.03674787597652 143.25082442382813 68.03674787597652 C 146.7863644238281 68.03674787597652 160.21596442382815 67.32750787597661 166.10181442382805 56.86378787597653 C 168.3746644238281 52.82317787597651 168.7317944238282 49.47455787597653 168.7317944238282 49.47455787597653 C 172.29270442382813 50.359077875976595 173.8079344238281 45.560847875976606 173.8079344238281 45.560847875976606 L 174.85875442382815 43.87938787597659 L 175.7424144238281 25.434157875976553 L 167.17099442382812 14.005587875976573 L 144.3138444238282 11.505587875976573 z"/>
  <path transform="translate(-3.2768 0.32768) matrix(0.420003 0 0 0.466669 18.0958 -180.095)" fill="#000000" stroke="#000000" stroke-width="4.51749" stroke-linecap="round" stroke-linejoin="round" stroke-dashoffset="1.5" id="imagebot_40" d="M 322.83592714003333 453.9136476834413 A 3.3425896642225332 1.7570640796732895 0 1 1 316.1507290930412 453.9136476834413 A 3.3425896642225332 1.7570640796732895 0 1 1 322.83592714003333 453.9136476834413 z"/>
  <path transform="matrix(1 0 0 1 -371.885 -497.562)" fill="none" stroke="#000000" stroke-width="1.5" stroke-linecap="round" stroke-linejoin="round" stroke-miterlimit="4" stroke-dashoffset="1.5" id="imagebot_39" d="M 512.6271290136718 534.0671265722656 C 509.05569901367187 542.9956965722656 506.9128490136719 541.9242765722656 509.05569901367187 542.9956965722656 C 511.1985590136719 544.0671265722656 514.4128490136719 544.0671265722656 514.4128490136719 544.0671265722656"/>
  <path transform="matrix(1 0 0 1 -371.885 -497.562)" fill="#000000" fill-rule="nonzero" stroke="#000000" stroke-width="2" stroke-linecap="round" stroke-linejoin="round" stroke-miterlimit="4" stroke-dashoffset="1.5" id="imagebot_38" d="M 503.2662390136719 524.4345665722656 C 506.0441590136719 514.5855765722656 521.4489890136718 514.3330365722657 521.4489890136718 514.3330365722657 L 539.3791890136719 519.6363365722656 C 539.3791890136719 519.6363365722656 536.8538090136719 519.0049965722657 539.3791890136719 519.6363365722656 C 540.1368090136718 524.6871065722656 539.3791890136719 532.7683265722657 539.3791890136719 532.7683265722657 C 539.3791890136719 532.7683265722657 539.6317290136719 532.7683265722657 541.9045790136719 532.2632465722656 C 544.1774190136719 531.7581765722656 546.9553390136718 534.7886265722657 546.9553390136718 538.0716265722656 C 546.9553390136718 541.3546165722656 545.6926490136718 542.9961165722656 545.6926490136718 542.9961165722656 L 549.6069890136719 539.5868565722657 C 549.6069890136719 539.5868565722657 551.753569013672 522.6667965722656 549.7332590136718 516.6058865722656 C 547.7129590136719 510.54496657226565 535.8436590136719 502.96882657226564 527.7624390136718 502.96882657226564 C 519.6812190136718 502.96882657226564 506.2047790136719 503.65213657226565 503.77131901367187 506.75689657226565 C 496.4477190136719 516.1008065722656 503.2662390136719 524.4345665722656 503.2662390136719 524.4345665722656 z"/>
  <path transform="matrix(1 0 0 1 -371.885 -497.562)" fill="#ffffff" fill-rule="nonzero" stroke="#000000" stroke-width="2" stroke-linecap="round" stroke-linejoin="round" stroke-miterlimit="4" stroke-dashoffset="1.5" id="imagebot_37" d="M507.16237,552.02502C515.26371,551.2674 519.53673,550.02266 519.53673,550.02266C521.05196,553.30565 515.94224,555.34475 514.35969,555.56055C508.80385,556.31816 507.16237,552.02502 507.16237,552.02502z"/>
  <g transform="matrix(1 0 0 1 -371.885 -497.562)" id="imagebot_31">
   <path fill="#ffffff" stroke="#000000" stroke-width="2" stroke-linecap="round" stroke-linejoin="round" stroke-dashoffset="1.5" id="imagebot_34" d="M385.24212,656.41004L386.5656,673.09004L596.02831,672.63004L596.99885,655.49004L385.24212,656.41004z"/>
   <path fill="#ffffff" stroke="#000000" stroke-width="2" stroke-linecap="round" stroke-linejoin="round" stroke-dashoffset="1.5" id="imagebot_33" d="M463.34253,614.66043L567.03699,614.17512L596.45374,656.40512L384.59495,656.34292L415.07876,624.40284"/>
   <path fill="#ffffff" stroke="#000000" stroke-width="2" stroke-linecap="round" stroke-linejoin="round" stroke-dashoffset="1.5" id="imagebot_32" d="M480.82195,620.29989L472.25195,649.57989L514.39195,648.86989L507.97195,619.57989L480.82195,620.29989z"/>
  </g>
  <path transform="matrix(1 0 0 1 -371.885 -497.562)" fill="#ffcb9f" fill-rule="nonzero" stroke="#000000" stroke-width="2" stroke-linecap="round" stroke-linejoin="round" stroke-miterlimit="4" stroke-dashoffset="1.5" id="imagebot_30" d="M 451.51103901367185 628.2173665722656 C 451.78976901367184 629.2703965722657 451.8773290136719 629.1468665722656 453.4172290136719 630.3718165722656 C 456.22815901367187 631.1022865722656 456.7265090136719 630.3492165722656 458.96452901367184 632.0325065722657 C 460.2463790136719 632.9966365722656 461.05736901367186 635.5296565722656 462.15728901367186 636.4835165722657 C 462.81463901367187 636.9025565722657 465.5855490136719 636.8903465722656 466.5028990136719 635.7849465722657 C 467.79300901367185 636.5620465722657 469.07539901367187 636.3072465722656 469.8592690136719 636.1207065722656 C 470.8750590136719 635.8789765722656 471.05468901367186 635.4085265722656 471.60601901367187 634.6174965722656 C 472.5675390136719 634.8203765722656 473.1865890136719 634.7825865722656 473.5930190136719 634.4148865722657 C 474.2752890136719 633.7976265722656 474.8074290136719 633.0564165722656 474.9979590136719 632.4921265722656 C 477.4191990136719 633.9589165722656 479.59939901367187 635.5640865722656 480.2292590136719 635.2491565722656 C 480.9868690136719 634.8703465722656 482.06463901367187 633.9188465722657 480.1705590136719 632.2773465722656 C 478.71579901367187 631.0165565722656 475.5581490136719 624.3793265722657 473.2142890136719 621.9623765722656 C 473.0186290136719 620.0582565722656 469.59136901367185 620.0492665722657 467.44850901367187 619.0671365722657 C 461.0450890136719 616.1322765722656 454.86817901367186 615.9270765722656 454.86817901367186 615.9270765722656 C 454.86817901367186 615.9270765722656 452.6412690136719 619.6631065722656 452.2624590136719 622.5672965722656 C 451.8836590136719 625.4714865722656 451.5328590136719 627.4841365722656 451.5328590136719 627.4841365722656"/>
  <path transform="matrix(1 0 0 1 -371.885 -497.562)" fill="#ff2a2a" fill-rule="nonzero" stroke="#000000" stroke-width="2" stroke-linecap="round" stroke-linejoin="round" stroke-miterlimit="4" stroke-dashoffset="1.5" id="imagebot_29" d="M462.56844,614.02063L461.34274,615.66583C461.34274,615.66583 458.49535,614.16355 455.66698,615.42491C453.61858,616.33843 450.48452,625.58928 452.22335,630.67785C452.41847,631.24886 451.62637,631.64336 451.62637,631.64336C451.62637,631.64336 407.98323,621.98827 405.96292,621.98827C403.94262,621.98827 399.39693,614.9172 399.39693,610.37151C399.39693,605.82583 399.39693,603.30044 399.39693,603.30044L426.67105,564.91465C426.67105,564.91465 427.93374,563.39942 437.02512,564.66211L467.65837,566.60845C476.24467,565.5983 479.7802,564.58814 480.79036,569.13383C481.80051,573.67952 485.33604,598.93333 487.86142,602.46886C490.38681,606.0044 495.35091,613.67245 495.35091,613.67245"/>
  <path transform="matrix(1 0 0 1 -371.885 -497.562)" fill="#ffffff" fill-rule="nonzero" stroke="#000000" stroke-width="2" stroke-linecap="round" stroke-linejoin="round" stroke-miterlimit="4" stroke-dashoffset="1.5" id="imagebot_28" d="M 471.19389901367185 613.5805265722656 L 473.2141990136719 584.7911865722656"/>
  <path transform="matrix(1 0 0 1 -371.885 -497.562)" fill="#ff2a2a" fill-rule="nonzero" stroke="#000000" stroke-width="2" stroke-linecap="round" stroke-linejoin="round" stroke-miterlimit="4" stroke-dashoffset="1.5" id="imagebot_27" d="M429.19642,592.69385L418.58982,608.35121L462.56844,614.02063"/>
  <path transform="matrix(1 0 0 1 -371.885 -497.562)" fill="#dba28a" fill-rule="nonzero" stroke="#000000" stroke-width="2" stroke-linecap="round" stroke-linejoin="round" stroke-miterlimit="4" stroke-dashoffset="1.5" id="imagebot_25" d="M465.30939,566.55615C465.30939,566.55615 459.501,580.57202 456.97562,581.07709C454.45024,581.58217 444.34872,580.31948 437.33739,565.12758L441.89948,556.00185"/>
  <path transform="matrix(1 0 0 1 -371.885 -497.562)" fill="#dba28a" fill-rule="nonzero" stroke="#000000" stroke-width="2" stroke-linecap="round" stroke-linejoin="round" stroke-miterlimit="4" stroke-dashoffset="1.5" id="imagebot_24" d="M483.09022,541.87781C480.23523,557.992 468.67023,567.49425 459.1028,568.22921C451.50564,567.73715 446.14353,560.68186 442.02525,555.05629C438.94765,550.85229 439.62127,551.36598 438.21625,545.82167C437.15416,533.16695 428.4939,519.4575 440.12977,514.16798C451.91816,508.37882 466.93273,505.22782 476.31433,514.55203C484.04069,521.92772 485.46158,531.35936 483.09022,541.87781z"/>
  <path fill="#000000" stroke="#000000" stroke-width="6.63039" stroke-linecap="round" stroke-linejoin="round" stroke-dashoffset="1.5" id="imagebot_23" transform="matrix(0.166365 0.101666 -0.243343 0.398201 153.772 -174.113)" d="M315.71427,452.36218A1.78571,2.14286 0 1 1 312.14284,452.36218A1.78571,2.14286 0 1 1 315.71427,452.36218z"/>
  <path fill="#000000" stroke="#000000" stroke-width="6.63039" stroke-linecap="round" stroke-linejoin="round" stroke-dashoffset="1.5" id="imagebot_22" transform="matrix(0.166365 0.101666 -0.243343 0.398201 164.339 -171.442)" d="M315.71427,452.36218A1.78571,2.14286 0 1 1 312.14284,452.36218A1.78571,2.14286 0 1 1 315.71427,452.36218z"/>
  <path transform="matrix(1 0 0 1 -371.885 -497.562)" fill="none" stroke="#000000" stroke-width="1.5" stroke-linecap="round" stroke-linejoin="round" stroke-dashoffset="1.5" id="imagebot_21" d="M468.2739,548.45803C470.23533,549.35374 474.7039,549.67232 474.1139,548.17803C473.16285,542.81714 473.34142,540.67428 473.34142,540.67428"/>
  <path transform="matrix(1 0 0 1 -371.885 -497.562)" fill="#ffffff" fill-rule="nonzero" stroke="#000000" stroke-width="2" stroke-linecap="round" stroke-linejoin="round" stroke-miterlimit="4" stroke-dashoffset="1.5" id="imagebot_20" d="M 462.09141901367184 555.6742665722657 C 470.6628490136719 556.5671265722656 472.2699890136719 555.8528465722657 472.2699890136719 555.8528465722657 C 472.2699890136719 555.8528465722657 472.32038901367184 555.6581865722657 472.2699890136719 555.8528465722657 C 471.44643901367186 559.0308665722656 466.37712901367183 561.5671265722656 465.12712901367183 561.5671265722656 C 463.87712901367183 561.5671265722656 462.09141901367184 555.6742665722657 462.09141901367184 555.6742665722657 z"/>
  <path transform="matrix(1 0 0 1 -371.885 -497.562)" fill="#6b2e00" fill-rule="nonzero" stroke="#000000" stroke-width="2" stroke-linecap="round" stroke-linejoin="round" stroke-miterlimit="4" stroke-dashoffset="1.5" id="imagebot_19" d="M445.59758,534.38274C452.78758,533.04274 463.58823,527.90982 469.92983,523.96389C477.18952,519.4467 479.75351,518.44048 481.21293,520.63455C482.9894,523.30528 483.81867,526.85942 484.23864,532.31704C490.25053,528.29766 488.601,516.44023 480.07855,508.80578C471.40362,501.03475 455.7237,497.56179 447.07874,502.30137C432.24699,510.43284 430.41641,518.70867 418.07955,547.6214C423.43333,551.8467 436.54411,557.18936 442.1777,554.53684C441.82435,553.08387 443.36011,549.78351 442.30294,546.71196C436.44778,548.87436 437.4678,534.34678 438.53473,533.36646C441.15849,530.95568 443.49816,534.21885 445.59758,534.38274z"/>
  <g id="imagebot_11" transform="matrix(1 0 0 1 -636.372 -692.017)">
   <g id="imagebot_13">
    <path fill="#ffcb9f" fill-rule="nonzero" stroke="#000000" stroke-width="2" stroke-linecap="round" stroke-linejoin="round" stroke-miterlimit="4" stroke-dashoffset="1.5" id="imagebot_16" d="M 869.7699862304687 766.9242865722656 C 869.7699862304687 785.0707865722657 857.2979162304688 799.4242865722656 841.9128462304687 799.4242865722656 C 835.3683062304688 799.4242865722656 831.0405962304687 797.3652965722656 825.9853362304688 794.3267665722656 C 822.4932162304688 792.2277865722656 816.3285362304687 777.3515865722657 816.3285362304687 766.9242865722656 C 816.3285362304687 748.7777865722657 826.5277662304687 734.0671465722656 841.9128462304687 734.0671465722656 C 857.2979162304688 734.0671465722656 869.7699862304687 748.7777865722657 869.7699862304687 766.9242865722656 z"/>
    <path fill="#6b2e00" fill-rule="nonzero" stroke="#000000" stroke-width="2" stroke-linecap="round" stroke-linejoin="round" stroke-miterlimit="4" stroke-dashoffset="1.5" id="imagebot_15" d="M814.05571,750.85285C819.77,761.21 827.98428,767.28143 830.84142,770.85286C833.44326,774.10515 847.62714,780.49571 847.62714,783.35286C847.62714,786.21 849.77,789.06714 849.77,789.06714L864.77,787.99572C864.77,787.99572 861.91286,791.92429 866.19857,784.06714C870.48428,776.21 873.32195,763.19286 871.91286,752.63857C871.14478,746.88551 868.37283,741.62256 864.41285,736.92429C859.59652,731.21 846.73589,728.42585 837.98429,728.71C828.3201,729.02378 820.12714,732.99572 816.55571,736.56714C812.98428,740.13857 814.05571,750.85285 814.05571,750.85285z"/>
    <path fill="#ffcb9f" fill-rule="nonzero" stroke="#000000" stroke-width="2" stroke-linecap="round" stroke-linejoin="round" stroke-miterlimit="4" stroke-dashoffset="1.5" id="imagebot_14" d="M 831.8119590136719 792.2560365722657 C 835.7405290136719 800.8274665722656 836.1985590136719 811.5671265722656 837.9842790136719 811.5671265722656 C 839.7699890136719 811.5671265722656 858.6985590136719 802.2814165722657 861.9128490136719 796.9242765722656 C 865.1271290136718 791.5671265722656 861.5557090136718 788.7099865722656 861.5557090136718 788.7099865722656"/>
   </g>
   <path fill="#000080" fill-rule="nonzero" stroke="#000000" stroke-width="2" stroke-linecap="round" stroke-linejoin="round" stroke-miterlimit="4" stroke-dashoffset="1.5" id="imagebot_12" d="M840.48428,800.13857C840.48428,800.13857 834.77,801.92429 826.91286,804.06714C819.05571,806.21 816.19857,810.49571 797.53786,864.335L797.62716,873.35286C796.86974,873.10039 808.05523,881.28438 819.26439,882.66459C831.54296,884.17648 856.55574,880.13858 856.55574,880.13858C856.55574,880.13858 893.34145,872.63858 893.34145,864.78143C893.34145,856.92429 884.77002,794.06714 881.19859,791.92429C877.62716,789.78143 872.62716,788.35286 859.77002,791.21L853.59187,796.00808L840.48428,800.13857z"/>
  </g>
  <path fill="#7a4a1e" fill-rule="nonzero" stroke="#7a4828" stroke-width="2" stroke-linecap="round" stroke-linejoin="round" stroke-miterlimit="4" stroke-dashoffset="1.5" id="imagebot_10" d="M 24.254210008277894 73.00950005794525 C 24.254210008277894 91.15600005794525 36.7262800082779 105.50950005794525 52.111350008277896 105.50950005794525 C 58.65589000827789 105.50950005794525 62.9836000082779 103.45051005794525 68.0388600082779 100.41198005794526 C 71.5309800082779 98.31300005794525 77.6956600082779 83.43680005794525 77.6956600082779 73.00950005794525 C 77.6956600082779 54.86301005794525 67.4964300082779 40.15237005794525 52.111350008277896 40.15237005794525 C 36.7262800082779 40.15237005794525 24.254210008277894 54.86301005794525 24.254210008277894 73.00950005794525 z"/>
  <path fill="#7a4a1e" fill-rule="nonzero" stroke="#7a532e" stroke-width="2" stroke-linecap="round" stroke-linejoin="round" stroke-miterlimit="4" stroke-opacity="0" stroke-dashoffset="1.5" id="imagebot_9" d="M62.53992,95.63501C58.61135,104.20644 58.15332,114.9461 56.3676,114.9461C54.58189,114.9461 35.65332,105.66039 32.43903,100.30325C29.22475,94.9461 32.79617,92.08896 32.79617,92.08896"/>
  <path fill="#007f3f" fill-rule="nonzero" stroke="#000000" stroke-width="2" stroke-linecap="round" stroke-linejoin="round" stroke-miterlimit="4" stroke-dashoffset="1.5" id="imagebot_7" d="M 53.86759674752318 108.51754616650373 C 53.86759674752318 108.51754616650373 59.58187640692563 110.30326606006668 67.43901593860357 112.44611593234276 C 75.29616547028093 114.58897580461849 78.1533052999821 118.87468554917018 96.81401418771713 172.7139723400985 L 96.72471419303974 184.81305161893704 C 96.72471419303974 184.81305161893704 65.83710603408485 192.91529113600598 55.8371066301313 193.62958109343094 C 45.83710722617775 194.3438710508559 0.00027995826576443505 185.40479158366657 0.00027995826576443505 177.54764205198921 C 0.00027995826576443505 169.69050252031127 9.581859387158943 102.44611652838921 13.153289174285192 100.30326665611312 C 16.724718961411327 98.16040678383752 21.724718663388103 96.73183686898687 34.58185789704282 99.58897669868816 L 40.76000752879645 104.38705641270019 L 53.86759674752318 108.51754616650373 z"/>
  <path fill="#2b2727" fill-rule="nonzero" stroke="#000000" stroke-width="2" stroke-linecap="round" stroke-linejoin="round" stroke-miterlimit="4" stroke-opacity="0" stroke-dashoffset="1.5" id="imagebot_6" d="M 81.34206021690369 54.001299504465024 C 76.26827021690369 61.259557762234365 68.97472021690368 65.51439241177457 66.43787021690369 68.0172454186322 C 64.1276202169037 70.29644404567973 57.25236021690369 91.92052501899497 57.502840216903685 93.91303536603705 C 58.39977021690369 101.04766883802668 49.633500216903684 101.72315722393051 44.24943021690369 101.31122578981653 C 27.829790216903685 100.05499056775467 24.652310216903686 93.83520937315481 24.652310216903686 93.83520937315481 C 24.652310216903686 93.83520937315481 20.098070216903686 79.91993215388672 22.795450216903685 69.4582838725342 C 24.380150216903687 63.31214359093444 22.718930216903686 67.65130863090769 23.970080216903686 60.2548808885564 C 24.652090216903687 56.223143982585825 33.11328021690369 47.53272252652661 36.629410216903686 44.24018823983805 C 40.90594021690369 40.23563373694436 52.324990216903686 38.28450001711146 60.09562021690369 38.48363147810475 C 68.67656021690368 38.70353371733085 75.95112021690369 41.48705508633391 79.12228021690369 43.989897785113016 C 82.29337021690368 46.49275079197065 81.34206021690369 54.001299504465024 81.34206021690369 54.001299504465024 z"/>
  <title>imagebot_2</title>
  <path transform="translate(-0.65536 -0.98304) matrix(0.420003 0 0 0.466669 2.03948 -180.095)" id="imagebot_72" fill="#000000" stroke="#000000" stroke-width="4.51749" stroke-linecap="round" stroke-linejoin="round" stroke-dashoffset="1.5" d="M 322.83593 453.91365 A 3.34259 1.7570599999999998 0 1 1 316.15073 453.91365 A 3.34259 1.7570599999999998 0 1 1 322.83593 453.91365 z"/>
 </g>
</svg>